<svg id="レイヤー_1" data-name="レイヤー 1" xmlns="http://www.w3.org/2000/svg" xmlns:xlink="http://www.w3.org/1999/xlink" viewBox="0 0 896.3 195.82"><defs><style>.cls-1{fill:none;}.cls-2{fill:#637a85;}.cls-3{fill:#627a86;}.cls-4{clip-path:url(#clip-path);}</style><clipPath id="clip-path" transform="translate(-52 -24.75)"><rect class="cls-1" x="712.26" y="-35.5" width="310.7" height="166.22"/></clipPath></defs><path class="cls-2" d="M52,215.63v-114H75.93q17.2,0,27.17,3.4a50.91,50.91,0,0,1,19.43,11.3q17.64,16.1,17.65,42.32t-18.39,42.53a53.55,53.55,0,0,1-19.35,11.3q-9.45,3.18-26.81,3.18Zm17.21-16.17H77q11.6,0,19.28-2.44a39,39,0,0,0,13.88-8.2q12.7-11.59,12.7-30.2,0-18.76-12.55-30.43Q99,117.78,77,117.78H69.21Z" transform="translate(-52 -24.75)"/><path class="cls-2" d="M149.37,113.79a10.86,10.86,0,0,1,10.79-10.71,10.46,10.46,0,0,1,7.68,3.18,10.22,10.22,0,0,1,3.17,7.6,10.46,10.46,0,0,1-3.17,7.68,10.23,10.23,0,0,1-7.61,3.18,10.86,10.86,0,0,1-10.86-10.93ZM168.5,143.7v71.93H151.88V143.7Z" transform="translate(-52 -24.75)"/><path class="cls-2" d="M226.91,156l-13.74,7.31q-3.24-6.65-8-6.65a5.54,5.54,0,0,0-3.91,1.52,5,5,0,0,0-1.63,3.87q0,4.14,9.6,8.2Q222.4,175.9,227,180.7t4.58,12.92a22.66,22.66,0,0,1-7.68,17.43,26.15,26.15,0,0,1-18,6.65q-18.09,0-25.62-17.65l14.17-6.58q3,5.17,4.51,6.58a10.27,10.27,0,0,0,7.23,2.8q8.43,0,8.42-7.68,0-4.42-6.5-8.27-2.5-1.26-5-2.44T198,182q-7.25-3.56-10.19-7.09-3.77-4.5-3.77-11.6a20.51,20.51,0,0,1,6.43-15.51,22.55,22.55,0,0,1,15.95-6.13Q220.18,141.7,226.91,156Z" transform="translate(-52 -24.75)"/><path class="cls-2" d="M298,146.8v22.08q-5.68-6.94-10.19-9.53a19.91,19.91,0,0,0-10.42-2.65,20.53,20.53,0,0,0-15.58,6.57q-6.21,6.57-6.2,16.47,0,10.11,6,16.61a20.13,20.13,0,0,0,15.43,6.5,21.13,21.13,0,0,0,10.56-2.58q4.44-2.51,10.42-9.75v21.93a43.64,43.64,0,0,1-20.24,5.25q-16.69,0-27.91-10.79T238.64,180A36.49,36.49,0,0,1,250,152.78q11.39-11.07,27.92-11.08A41.72,41.72,0,0,1,298,146.8Z" transform="translate(-52 -24.75)"/><path class="cls-3" d="M306.28,179.15a35.78,35.78,0,0,1,11.15-26.52,39.33,39.33,0,0,1,54.5.08,36.62,36.62,0,0,1,11.08,27q0,16.17-11.15,27.1T344.31,217.7q-16.17,0-27.1-11.08T306.28,179.15Zm17,.29q0,10.78,5.76,17.06t15.58,6.35q9.75,0,15.58-6.27T366,179.81q0-10.49-5.83-16.76t-15.58-6.35q-9.53,0-15.44,6.35T323.27,179.44Z" transform="translate(-52 -24.75)"/><path class="cls-2" d="M400.45,143.7l18.61,40.39L437.6,143.7h18.68l-37.37,76.88L381.84,143.7Z" transform="translate(-52 -24.75)"/><path class="cls-2" d="M523.94,183.58H472.39q.66,8.86,5.76,14.1a17.55,17.55,0,0,0,13.07,5.17,17,17,0,0,0,10.27-2.95q4-3,9.08-10.93l14,7.83a56.51,56.51,0,0,1-6.87,9.49,36.53,36.53,0,0,1-7.75,6.5,31.46,31.46,0,0,1-8.94,3.73,43.88,43.88,0,0,1-10.41,1.18q-16.11,0-25.85-10.34T455,179.74q0-17.07,9.46-27.62t25.25-10.42q15.88,0,25.11,10.12T524,179.66ZM506.88,170q-3.48-13.29-16.77-13.29a17.14,17.14,0,0,0-5.69.92,16.05,16.05,0,0,0-4.83,2.66,16.77,16.77,0,0,0-3.73,4.17A19.22,19.22,0,0,0,473.5,170Z" transform="translate(-52 -24.75)"/><path class="cls-2" d="M533,143.7h16.62v6.42a31.52,31.52,0,0,1,8.12-6.57,18.61,18.61,0,0,1,8.57-1.85q6.55,0,13.73,4.29l-7.61,15.21a15.88,15.88,0,0,0-9.23-3.4q-13.59,0-13.58,20.53v37.3H533Z" transform="translate(-52 -24.75)"/><path class="cls-2" d="M677.24,107.73v20.39q-14.93-12.48-30.87-12.48a39.31,39.31,0,0,0-29.62,12.62Q604.65,140.82,604.64,159q0,17.94,12.11,30.27a40,40,0,0,0,29.69,12.34,36.44,36.44,0,0,0,15.44-3,44.71,44.71,0,0,0,7.35-4,89.94,89.94,0,0,0,8-6.06v20.75a62.11,62.11,0,0,1-31,8.35,57.22,57.22,0,0,1-41.72-17.06,56.54,56.54,0,0,1-17.21-41.51,58.54,58.54,0,0,1,14.4-38.84q17.73-20.9,45.86-20.9A58.24,58.24,0,0,1,677.24,107.73Z" transform="translate(-52 -24.75)"/><path class="cls-2" d="M703.32,90.9V215.63H686.7V90.9Z" transform="translate(-52 -24.75)"/><path class="cls-2" d="M715.37,179.15a35.78,35.78,0,0,1,11.15-26.52,39.33,39.33,0,0,1,54.5.08,36.62,36.62,0,0,1,11.08,27q0,16.17-11.15,27.1T753.4,217.7q-16.17,0-27.1-11.08T715.37,179.15Zm17,.29q0,10.78,5.76,17.06t15.58,6.35q9.75,0,15.58-6.27t5.83-16.77q0-10.49-5.83-16.76T753.7,156.7q-9.53,0-15.44,6.35T732.36,179.44Z" transform="translate(-52 -24.75)"/><path class="cls-2" d="M820.69,143.7V185q0,17.88,14.11,17.87T848.9,185V143.7h16.62v41.65a46.32,46.32,0,0,1-2.14,14.92,25.2,25.2,0,0,1-7.16,10.12q-8.43,7.31-21.42,7.31t-21.34-7.31a25.42,25.42,0,0,1-7.31-10.12c-1.39-3.35-2.07-8.32-2.07-14.92V143.7Z" transform="translate(-52 -24.75)"/><g class="cls-4"><path class="cls-2" d="M913.43,89.61a51.42,51.42,0,0,0-62.65-31.16A71.08,71.08,0,0,0,719.26,94.28a47.39,47.39,0,0,0,23.68,88.44h158a47.4,47.4,0,0,0,12.53-93.11Zm-12.5,77.31h-158a31.6,31.6,0,0,1-7.19-62.36A55.3,55.3,0,0,1,843.26,79.84a35.55,35.55,0,0,1,57.43,23.9h.24c17.4,0,30.68,14.14,30.68,31.59S918.37,166.92,900.93,166.92Z" transform="translate(-52 -24.75)"/></g><path class="cls-2" d="M931.61,130.72H948.3v84.91H931.61V208.1q-9.84,9.6-22.24,9.6a31.63,31.63,0,0,1-24.51-10.79q-9.68-11-9.68-27.47,0-16.09,9.68-26.88A30.87,30.87,0,0,1,909,141.7q12.63,0,22.6,10.34Zm-39.44,48.72q0,10.35,5.54,16.84A18.13,18.13,0,0,0,912,202.85q9.24,0,14.92-6.35,5.68-6.57,5.69-16.69T927,163.12a18.8,18.8,0,0,0-14.77-6.42,18.38,18.38,0,0,0-14.33,6.49A24,24,0,0,0,892.17,179.44Z" transform="translate(-52 -24.75)"/></svg>